<?xml version="1.0" standalone="no"?>
<!DOCTYPE svg PUBLIC "-//W3C//DTD SVG 1.1//EN" "http://www.w3.org/Graphics/SVG/1.1/DTD/svg11.dtd" >
<svg xmlns="http://www.w3.org/2000/svg">
<metadata>Generated by IcoMoon</metadata>
<defs>
<font id="icomoon" horiz-adv-x="1024">
<font-face units-per-em="1024" ascent="960" descent="-64" />
<missing-glyph horiz-adv-x="1024" />
<glyph unicode="&#x20;" horiz-adv-x="512" d="" />
<glyph unicode="&#xe900;" glyph-name="arrow-down" d="M460.8 144.794l-310.835 310.835-72.397-72.397 434.432-434.432 434.432 434.432-72.397 72.397-310.835-310.835v828.006h-102.4z" />
<glyph unicode="&#xe901;" glyph-name="close" d="M512 533.197l-362.035 362.035-72.397-72.397 362.035-362.035-362.035-362.035 72.397-72.397 362.035 362.035 362.035-362.035 72.397 72.397-362.035 362.035 362.035 362.035-72.397 72.397-362.035-362.035z" />
<glyph unicode="&#xe902;" glyph-name="menu" d="M0 819.2h1024v-102.4h-1024v102.4zM0 512h1024v-102.4h-1024v102.4zM0 204.8h1024v-102.4h-1024v102.4z" />
<glyph unicode="&#xe903;" glyph-name="1" d="M861.347 90.416c0-85.275-69.107-154.415-154.366-154.415h-389.977c-85.259 0-154.366 69.14-154.366 154.415v715.17c0 85.275 69.107 154.415 154.366 154.415h389.977c85.259 0 154.366-69.14 154.366-154.415v-715.17zM812.6 805.584c0 58.35-47.285 105.651-105.619 105.651h-389.977c-58.333 0-105.619-47.301-105.619-105.651v-715.17c0-58.35 47.285-105.651 105.619-105.651h389.977c58.333 0 105.619 47.301 105.619 105.651v715.17zM861.347 106.665c0-13.47-10.903-24.374-24.374-24.374h-649.963c-13.47 0-24.374 10.903-24.374 24.374v698.921c0 13.47 10.903 24.39 24.374 24.39h649.963c13.47 0 24.374-10.919 24.374-24.39v-698.921zM211.384 131.055h601.215v650.158h-601.215v-650.158zM551.672 867.152c0-17.955-14.559-32.514-32.498-32.514-17.955 0-32.498 14.559-32.498 32.514s14.543 32.514 32.498 32.514c17.955 0 32.498-14.559 32.498-32.514zM561.942 17.263h-81.244c-13.454 0-24.374 10.919-24.374 24.39 0 13.454 10.919 24.374 24.374 24.374h81.244c13.454 0 24.374-10.919 24.374-24.374 0-13.47-10.936-24.39-24.374-24.39zM560.707 326.091c-0.016 0-0.016 0-0.032 0-13.454 0-24.357 14.445-24.341 27.9 0.179 122.355-74.047 134.981-82.497 135.826-13.308 1.316-23.187 13.974-22.017 27.282 1.186 13.292 12.739 23.837 26.014 22.602 1.267-0.097 127.49-15.063 127.246-185.987 0-13.454-10.936-27.623-24.374-27.623zM672.208 342.357c-0.016 0-0.016 0-0.032 0-13.454 0-24.357 11.846-24.341 25.316 0.292 216.161-144.194 230.249-145.657 230.379-13.422 1.040-23.464 12.967-22.407 26.405 1.024 13.454 12.967 24.114 26.161 22.537 1.901-0.13 191.008-18.573 190.65-279.45-0.016-13.454-10.936-25.186-24.374-25.186z" />
<glyph unicode="&#xe904;" glyph-name="2" d="M999.619 33.394h-975.238c-13.458 0-24.381 10.923-24.381 24.397 0 13.458 10.923 24.381 24.381 24.381h975.238c13.458 0 24.381-10.923 24.381-24.381 0-13.475-10.923-24.397-24.381-24.397zM1022.797 285.412c0-85.301-69.128-154.461-154.413-154.461h-698.921c-85.268 0-154.413 69.161-154.413 154.461v422.733c0 85.301 69.144 154.461 154.413 154.461h698.921c85.285 0 154.413-69.161 154.413-154.461v-422.733zM974.035 708.145c0 58.368-47.299 105.683-105.651 105.683h-698.921c-58.335 0-105.651-47.315-105.651-105.683v-422.733c0-58.368 47.315-105.683 105.651-105.683h698.921c58.352 0 105.651 47.315 105.651 105.683v422.733zM848.327 130.95h-652.483c-95.395 0-172.991 76.589-172.991 170.715 0 13.475 10.923 24.397 24.381 24.397h949.703c13.458 0 24.381-10.923 24.381-24.397 0-94.127-77.613-170.715-172.991-170.715zM74.102 277.285c11.54-55.589 61.749-97.556 121.742-97.556h652.483c59.993 0 110.186 41.968 121.726 97.556h-895.951zM575.667 370.095c-6.242 0-12.483 2.373-17.245 7.135-9.525 9.525-9.525 24.966 0 34.491l134.599 134.632c9.525 9.525 24.966 9.525 34.475 0 9.525-9.525 9.525-24.966 0-34.491l-134.599-134.632c-4.762-4.762-11.004-7.135-17.229-7.135zM367.128 347.29c-6.242 0-12.483 2.389-17.245 7.152-9.525 9.525-9.525 24.95 0 34.475l291.612 291.726c9.525 9.525 24.966 9.525 34.491 0 9.509-9.525 9.509-24.95 0-34.491l-291.629-291.71c-4.762-4.762-11.004-7.152-17.229-7.152z" />
<glyph unicode="&#xe905;" glyph-name="3" d="M958.399 90.413c0-85.286-69.127-154.413-154.412-154.413h-585.144c-85.285 0-154.413 69.127-154.413 154.413v715.174c0.002 85.285 69.13 154.413 154.413 154.413h585.142c85.285 0 154.412-69.128 154.412-154.413v-715.174zM909.637 805.587c0 58.351-47.298 105.651-105.651 105.651h-585.142c-58.351 0-105.651-47.3-105.651-105.651v-715.174c0-58.353 47.3-105.653 105.651-105.653h585.142c58.353 0 105.651 47.3 105.651 105.653v715.174zM138.745 634.92h-32.509c-13.458 0-24.38 10.923-24.38 24.38s10.923 24.382 24.38 24.382h32.509c13.458 0 24.38-10.923 24.38-24.382s-10.923-24.38-24.38-24.38zM902.679 634.92h-763.936c-13.489 0-24.38 10.889-24.38 24.38s10.891 24.382 24.38 24.382h763.936c13.493 0 24.382-10.891 24.382-24.382s-10.872-24.38-24.382-24.38zM935.19 634.92h-32.51c-13.458 0-24.379 10.923-24.379 24.38s10.921 24.382 24.379 24.382h32.51c13.458 0 24.379-10.923 24.379-24.382s-10.904-24.38-24.379-24.38zM337.547 778.817c0-22.951-18.594-41.546-41.546-41.546-22.935 0-41.529 18.594-41.529 41.546 0 22.935 18.594 41.529 41.529 41.529 22.951 0 41.546-18.594 41.546-41.529zM487.083 778.817c0-22.951-18.611-41.546-41.546-41.546s-41.529 18.594-41.529 41.546c0 22.935 18.594 41.529 41.529 41.529s41.546-18.594 41.546-41.529zM620.025 778.817c0-22.951-18.594-41.546-41.546-41.546-22.935 0-41.546 18.594-41.546 41.546 0 22.935 18.611 41.529 41.546 41.529s41.546-18.594 41.546-41.529zM673.499 221.664c-7.8 0-15.474 3.738-20.186 10.663-7.56 11.15-4.683 26.314 6.45 33.872l124.342 84.585-121.725 62.205c-11.98 6.127-16.742 20.821-10.615 32.801 6.144 11.995 20.823 16.742 32.801 10.63l125.823-64.3c14.321-7.332 23.664-21.276 24.947-37.321 1.285-16.059-5.702-31.321-18.69-40.845l-129.464-88.066c-4.191-2.861-8.955-4.227-13.685-4.227zM394.029 156.647c-4.73 0-9.492 1.365-13.702 4.227l-128.748 87.575c-13.687 10.012-20.676 25.275-19.391 41.335 1.285 16.043 10.63 29.989 24.966 37.319l125.805 64.301c11.995 6.095 26.673 1.365 32.801-10.632 6.127-11.978 1.365-26.671-10.615-32.8l-121.742-62.221 124.359-84.57c11.133-7.558 14.011-22.722 6.437-33.856-4.713-6.94-12.368-10.678-20.17-10.678zM487.083 109.69c-2.406 0-4.844 0.341-7.25 1.106-12.857 3.999-20.042 17.669-16.026 30.524l106.918 343.137c3.984 12.857 17.654 20.073 30.526 16.026 12.857-4.014 20.040-17.667 16.026-30.524l-106.934-343.154c-3.233-10.434-12.855-17.115-23.259-17.115z" />
<glyph unicode="&#xe906;" glyph-name="4" d="M712.974-39.604h-401.932c-88.549 0-165.525 55.993-191.563 139.308l-110.182 350.164c-19.098 61.113-8.452 125.477 29.142 176.626 38.114 51.832 97.293 81.56 162.404 81.56h622.328c64.916 0 124.030-29.76 162.177-81.625 37.806-51.426 48.5-116.033 29.37-177.276l-110.198-350.327c-25.892-82.779-102.868-138.431-191.547-138.431zM200.844 659.295c-49.427 0-94.303-22.479-123.12-61.682-28.314-38.521-36.294-87.053-21.91-133.148l110.198-350.164c19.667-62.901 77.935-105.144 145.030-105.144h401.932c67.257 0 125.525 41.901 145.030 104.282l110.198 350.311c14.449 46.225 6.388 95.001-22.137 133.782-28.866 39.252-73.644 61.763-122.892 61.763h-622.328zM764.822 667.422c-13.458 0-24.38 10.906-24.38 24.38v89.394c0 58.252-54.319 105.647-112.571 105.647h-243.802c-58.252 0-98.723-47.395-98.723-105.647v-89.394c0-13.474-10.906-24.38-24.38-24.38-13.458 0-24.38 10.906-24.38 24.38v89.394c0 85.136 62.332 154.408 147.484 154.408h243.802c85.136 0 161.332-69.272 161.332-154.408v-89.394c0-13.474-10.906-24.38-24.38-24.38z" />
<glyph unicode="&#xe907;" glyph-name="5" d="M1023.635 109.718c0-95.931-77.714-173.718-173.59-173.718h-676.089c-95.877 0-173.59 77.787-173.59 173.718v676.564c0 95.95 77.714 173.718 173.59 173.718h676.089c95.877 0 173.59-77.768 173.59-173.718v-676.564zM968.817 786.282c0 65.654-53.173 118.864-118.772 118.864h-676.089c-65.599 0-118.772-53.21-118.772-118.864v-676.564c0-65.635 53.173-118.864 118.772-118.864h676.089c65.599 0 118.772 53.228 118.772 118.864v676.564zM758.681-54.845c-15.13 0-27.409 12.279-27.409 27.427v950.855c0 15.148 12.279 27.427 27.409 27.427s27.409-12.279 27.409-27.427v-950.855c0-15.148-12.279-27.427-27.409-27.427zM521.136-54.845c-15.13 0-27.409 12.279-27.409 27.427v950.855c0 15.148 12.279 27.427 27.409 27.427s27.409-12.279 27.409-27.427v-950.855c0-15.148-12.279-27.427-27.409-27.427zM283.592-54.845c-15.13 0-27.409 12.279-27.409 27.427v950.855c0 15.148 12.279 27.427 27.409 27.427s27.409-12.279 27.409-27.427v-950.855c0-15.148-12.279-27.427-27.409-27.427zM979.287 411.436h-456.817c-15.13 0-27.409 12.279-27.409 27.427s12.279 27.427 27.409 27.427h456.817c15.13 0 27.409-12.279 27.409-27.427s-12.279-27.427-27.409-27.427z" />
<glyph unicode="&#xe908;" glyph-name="6" d="M731.429 208.92c0-85.301-69.128-154.461-154.413-154.461h-422.603c-85.285 0-154.413 69.161-154.413 154.461v260.145c0 85.301 69.128 154.461 154.413 154.461h422.603c85.285 0 154.413-69.161 154.413-154.461v-260.145zM682.667 469.065c0 58.368-47.299 105.683-105.651 105.683h-422.603c-58.352 0-105.651-47.315-105.651-105.683v-260.145c0-58.368 47.299-105.683 105.651-105.683h422.603c58.352 0 105.651 47.315 105.651 105.683v260.145zM961.048 31.915c-10.988 0-23.617 3.137-33.239 9.086l-231.375 142.759c-7.412 4.584-12.255 12.808-11.979 21.52l7.135 223.427c0.244 8.029 4.34 15.409 11.101 19.749l222.696 142.58c9.834 6.258 24.413 9.541 35.661 9.541 32.801 0 62.952-27.16 62.952-60.562v-447.521c0-33.418-30.167-60.579-62.952-60.579zM733.217 217.795l221.997-135.314c6.94-4.34 20.025-0.13 20.025 10.012v447.521c0 10.175-13.052 14.466-20.204 9.899l-213.626-135.623-8.192-196.494zM482.044 579.17c-63.586 0-115.322 51.753-115.322 115.354 0 63.618 51.736 115.371 115.322 115.371s115.338-51.753 115.338-115.371c0-63.602-51.753-115.354-115.338-115.354zM482.044 761.116c-36.701 0-66.56-29.859-66.56-66.593 0-36.701 29.859-66.576 66.56-66.576 36.718 0 66.576 29.875 66.576 66.576 0 36.734-29.859 66.593-66.576 66.593zM274.367 579.17c-78.539 0-142.434 63.911-142.434 142.466 0 78.539 63.894 142.45 142.434 142.45 78.523 0 142.417-63.911 142.417-142.45 0-78.555-63.894-142.466-142.417-142.466zM274.367 815.307c-51.655 0-93.672-42.017-93.672-93.672s42.017-93.688 93.672-93.688c51.639 0 93.655 42.033 93.655 93.688s-42.017 93.672-93.655 93.672z" />
<glyph unicode="&#xe909;" glyph-name="Google" horiz-adv-x="3027" d="M1288.348 434.866c0-142.136-111.193-246.873-247.652-246.873s-247.652 104.737-247.652 246.873c0 143.137 111.193 246.873 247.652 246.873s247.652-103.736 247.652-246.873zM1179.937 434.866c0 88.821-64.445 149.593-139.242 149.593s-139.242-60.772-139.242-149.593c0-87.93 64.445-149.593 139.242-149.593s139.242 61.774 139.242 149.593zM1822.609 434.866c0-142.136-111.193-246.873-247.652-246.873s-247.652 104.737-247.652 246.873c0 143.026 111.193 246.873 247.652 246.873s247.652-103.736 247.652-246.873zM1714.198 434.866c0 88.821-64.445 149.593-139.242 149.593s-139.242-60.772-139.242-149.593c0-87.93 64.445-149.593 139.242-149.593s139.242 61.774 139.242 149.593zM2334.609 666.824v-443.214c0-182.317-107.52-256.779-234.63-256.779-119.652 0-191.666 80.028-218.824 145.475l94.386 39.29c16.807-40.181 57.99-87.597 124.327-87.597 81.363 0 131.784 50.198 131.784 144.696v35.506h-3.784c-24.264-29.941-71.012-56.097-130.003-56.097-123.437 0-236.522 107.52-236.522 245.871 0 139.353 113.085 247.763 236.522 247.763 58.88 0 105.628-26.157 130.003-55.207h3.784v40.181h102.957v0.111zM2239.332 433.976c0 86.929-57.99 150.483-131.784 150.483-74.797 0-137.461-63.555-137.461-150.483 0-86.038 62.664-148.703 137.461-148.703 73.795 0 131.784 62.664 131.784 148.703zM2504.348 926.609v-723.478h-105.739v723.478h105.739zM2916.397 353.612l84.146-56.097c-27.158-40.181-92.605-109.412-205.69-109.412-140.243 0-244.981 108.41-244.981 246.873 0 146.81 105.628 246.873 232.849 246.873 128.111 0 190.776-101.955 211.256-157.050l11.242-28.049-330.017-136.682c25.266-49.53 64.557-74.797 119.652-74.797 55.207 0 93.496 27.158 121.544 68.341zM2657.391 442.433l220.605 91.603c-12.132 30.831-48.64 52.313-91.603 52.313-55.096 0-131.784-48.64-129.002-143.917v0zM392.792 499.086v104.737h352.946c3.45-18.254 5.231-39.847 5.231-63.221 0-78.581-21.482-175.75-90.713-244.981-67.339-70.122-153.377-107.52-267.353-107.52-211.256 0-388.898 172.077-388.898 383.332s177.642 383.332 388.898 383.332c116.87 0 200.125-45.857 262.678-105.628l-73.906-73.906c-44.856 42.073-105.628 74.796-188.883 74.796-154.268 0-274.922-124.327-274.922-278.595s120.654-278.595 274.922-278.595c100.063 0 157.050 40.181 193.558 76.689 29.607 29.607 49.085 71.903 56.765 129.67l-250.323-0.111z" />
<glyph unicode="&#xe90a;" glyph-name="IBM" horiz-adv-x="1719" d="M326.881 768.202h-323.953c-1.643 0-2.974-1.33-2.974-2.974v-40.745c0-1.836 1.489-3.325 3.325-3.325h324.931c3.509 0 6.354 2.845 6.354 6.355v33c0 4.248-3.442 7.688-7.685 7.688zM332.421 127.64h-326.037c-2.102 0-3.806-1.704-3.806-3.806v-38.745c0.004-2.481 2.017-4.492 4.497-4.492h325.462c2.57 0 4.656 2.086 4.656 4.656v37.616c0 2.634-2.137 4.771-4.771 4.771zM884.273 493.674h-401.443c-2.596 0-4.698-2.102-4.698-4.698v-38.128h-0.004c0-2.33 1.888-4.217 4.217-4.217h362.967c1.944 0 3.81 0.661 5.311 1.9 6.822 5.646 26.778 23.028 36.308 40.672 1.090 2.021-0.364 4.47-2.661 4.47zM325.697 676.72h-317.353c-4.634 0-8.389-3.753-8.389-8.387v-31.022c0-4.214 3.415-7.633 7.633-7.633h317.787c5.076 0 9.191 4.115 9.191 9.191v28.98c0.004 4.9-3.969 8.873-8.869 8.873zM236.668 310.685h-135.844c-2.605 0-4.716-2.111-4.716-4.716v-37.063c0-2.905 2.355-5.265 5.265-5.265h135.553c2.27 0 4.11 1.84 4.11 4.11v38.568c0 2.406-1.957 4.363-4.368 4.363zM234.657 493.679h-132.089c-3.566 0-6.458-2.892-6.458-6.458v-34.651c0-3.274 2.656-5.93 5.934-5.93h132.785c3.429 0 6.208 2.781 6.208 6.208v34.45c0 3.522-2.858 6.38-6.38 6.38zM241.037 579.385c0 3.231-2.621 5.852-5.852 5.852h-134.213c-2.681 0-4.858-2.175-4.858-4.858v-36.836c0-2.994 2.428-5.424 5.424-5.424h135.766c2.064 0 3.737 1.673 3.737 3.737l-0.004 37.527zM618.705 310.689h-134.849c-3.162 0-5.724-2.561-5.724-5.724v-36.119h-0.004c0-2.874 2.33-5.2 5.2-5.2h134.556c2.841 0 5.144 2.304 5.144 5.144v37.578c0 2.386-1.935 4.321-4.325 4.321zM241.037 396.491c0 3.136-2.544 5.681-5.681 5.681h-133.664c-3.081 0-5.578-2.497-5.578-5.578v-35.008c0-3.566 2.888-6.453 6.453-6.453h131.562c3.815 0 6.913 3.094 6.913 6.913l-0.004 34.446zM618.387 585.233h-135.5c-2.626 0-4.75-2.128-4.75-4.75v-36.153c-0.009-3.433 2.772-6.212 6.205-6.212h134.728c2.188 0 3.964 1.776 3.964 3.964v38.505c0 2.566-2.081 4.647-4.647 4.647zM887.105 359.255c-9.186 17.209-28.494 34.326-35.878 40.508-1.871 1.566-4.21 2.412-6.651 2.412h-361.783c-2.579 0-4.669-2.090-4.669-4.669v-37.196h0.004c0-2.861 2.321-5.184 5.184-5.184h401.348c2.115-0.004 3.442 2.257 2.446 4.128zM1619.020 585.238h-234.525c-1.6 0-3.034-1.005-3.582-2.51l-14.391-39.491c-0.905-2.488 0.935-5.118 3.582-5.118h248.917c2.106 0 3.815 1.707 3.815 3.815v39.491c0 2.106-1.707 3.815-3.815 3.815zM1712.574 676.652h-296.435c-1.635 0-3.089-1.047-3.613-2.596l-13.283-39.351c-0.832-2.472 1.005-5.033 3.613-5.033h309.72c2.106 0 3.815 1.707 3.815 3.815v39.351c0 2.106-1.707 3.815-3.815 3.815zM1712.574 768.202h-262.257c-1.605 0-3.034-1.005-3.582-2.51l-14.348-39.42c-0.905-2.488 0.935-5.118 3.582-5.118h276.605c2.106 0 3.815 1.707 3.815 3.814v39.42c0 2.111-1.707 3.815-3.815 3.815zM1303.585 543.236l-14.348 39.491c-0.55 1.505-1.978 2.51-3.582 2.51h-231.462c-3.129 0-5.659-2.536-5.659-5.659v-34.338c0-3.93 3.189-7.118 7.118-7.118h244.351c2.648 0 4.488 2.63 3.582 5.115zM899.582 673.631c-1.365 1.953-3.673 3.021-6.054 3.021h-505.676c-3.244 0-5.879-2.634-5.879-5.879v-35.673c0-2.994 2.428-5.424 5.424-5.424h522.087c2.446 0 4.274 2.235 3.78 4.63-1.871 9.088-6.612 29.228-13.683 39.324zM1238.976 726.281l-14.348 39.418c-0.55 1.505-1.978 2.51-3.582 2.51h-263.453c-2.896 0-5.244-2.346-5.244-5.244v-36.459c0-2.952 2.394-5.346 5.346-5.346h277.699c2.648 0 4.488 2.63 3.582 5.118zM852.808 726.398c-14.892 12.258-56.088 41.808-107.212 41.808h-358.501c-2.832 0-5.127-2.295-5.127-5.127v-35.969c0-3.282 2.661-5.943 5.943-5.943h462.992c2.781-0.004 4.050 3.462 1.905 5.231zM1353.753 127.64h-32.807c-1.081 0-1.836-1.072-1.472-2.090l16.035-44.833 2.87-0.047 16.494 45.37c0.288 0.777-0.291 1.6-1.12 1.6zM1447.56 402.166h-222.34c-2.661 0-4.501-2.656-3.569-5.144l14.717-39.418c0.557-1.489 1.982-2.481 3.575-2.481h193.682c1.609 0 3.051 1.017 3.591 2.541l13.94 39.418c0.879 2.481-0.961 5.084-3.595 5.084zM1414.714 310.685h-156.623c-2.643 0-4.483-2.621-3.587-5.106l14.224-39.418c0.544-1.511 1.978-2.519 3.587-2.519h128.052c1.605-0.004 3.038 0.999 3.582 2.506l14.348 39.418c0.905 2.488-0.935 5.118-3.582 5.118zM1619.024 493.679h-265.513c-1.609 0-3.042-1.005-3.587-2.514l-9.958-27.46c-1.214-3.347-5.952-3.351-7.166-0.004l-9.993 27.469c-0.55 1.505-1.978 2.51-3.582 2.51h-264.865c-3.218 0-5.831-2.608-5.831-5.831v-34.657c0-3.622 2.934-6.556 6.556-6.556h134.514c2.106 0 3.815 1.707 3.815 3.815 0 4.29 5.99 5.311 7.41 1.261l0.888-2.527c0.537-1.527 1.978-2.548 3.595-2.548h260.14c1.587 0 3.008 0.983 3.566 2.467l1.566 4.15c1.498 3.969 7.38 2.896 7.38-1.347v-1.454c0-2.106 1.707-3.815 3.815-3.815h137.251c2.106 0 3.815 1.707 3.815 3.815v39.418c0 2.098-1.707 3.81-3.815 3.81zM1381.963 219.199h-90.886c-2.656 0-4.497-2.648-3.575-5.14l14.639-39.491c0.553-1.493 1.982-2.488 3.575-2.488h62.55c1.622 0.004 3.068 1.034 3.6 2.566l13.7 39.491c0.858 2.475-0.978 5.063-3.604 5.063zM1619.020 402.171h-137.251c-2.106 0-3.815-1.707-3.815-3.815v-39.418c0-2.111 1.707-3.815 3.815-3.815h137.251c2.106 0 3.815 1.707 3.815 3.815v39.418c0 2.106-1.707 3.815-3.815 3.815zM333.708 219.203h-327.672c-1.909 0-3.454-1.549-3.454-3.454v-39.049c0-2.548 2.064-4.612 4.612-4.612h326.835c1.746 0 3.162 1.416 3.162 3.162v40.47c0 1.922-1.558 3.484-3.484 3.484zM1715.201 127.64h-233.435c-2.106 0-3.815-1.707-3.815-3.815v-39.418c0-2.106 1.707-3.815 3.815-3.815h233.431c2.106 0 3.815 1.707 3.815 3.815v39.418c0.004 2.106-1.704 3.815-3.81 3.815zM1619.020 310.685h-137.251c-2.106 0-3.815-1.707-3.815-3.815v-39.418c0-2.106 1.707-3.815 3.815-3.815h137.251c2.106 0 3.815 1.707 3.815 3.815v39.418c0 2.106-1.707 3.815-3.815 3.815zM1189.595 402.171h-134.685c-3.522 0-6.38-2.858-6.38-6.38v-33.403c0-4.008 3.249-7.255 7.255-7.255h133.81c2.106 0 3.815 1.707 3.815 3.815v39.415c0 2.102-1.707 3.81-3.815 3.81zM1715.201 219.203h-233.435c-2.106 0-3.815-1.707-3.815-3.815v-39.491c0-2.106 1.707-3.815 3.815-3.815h233.431c2.106 0 3.815 1.707 3.815 3.815v39.491c0.004 2.106-1.704 3.815-3.81 3.815zM914.994 585.238h-146.819c-2.308 0-4.179-1.871-4.179-4.179v-38.903c0-2.226 1.806-4.033 4.033-4.033h137.916c1.789 0 3.382 1.128 3.948 2.832 2.231 6.72 7.548 24.341 8.156 41.186 0.056 1.695-1.352 3.098-3.054 3.098zM910.085 307.252c-0.674 2.060-2.587 3.433-4.758 3.433h-135.509c-3.218 0-5.826-2.608-5.826-5.826v-34.579c0-3.669 2.974-6.642 6.642-6.642h143.095c2.467 0 4.377 2.086 4.252 4.548-0.824 15.893-5.63 32.163-7.895 39.067zM910.819 219.203h-524.675c-2.304 0-4.17-1.866-4.17-4.17v-38.827c0-2.274 1.845-4.119 4.119-4.119h508.353c1.806-0.004 3.506 0.819 4.587 2.261 7.754 10.34 12.816 33.042 14.503 41.551 0.339 1.716-0.97 3.304-2.716 3.304zM852.153 127.64h-465.391c-2.643 0-4.789-2.146-4.789-4.789v-37.814c0-2.412 1.957-4.368 4.368-4.368h359.26c52.286 0 94.18 30.855 108.186 42.551 1.793 1.502 0.708 4.419-1.635 4.419zM1270.761 634.706l-13.283 39.351c-0.524 1.549-1.978 2.592-3.613 2.592h-295.565c-3.287 0-5.952-2.665-5.952-5.952v-35.878c0-2.836 2.3-5.14 5.14-5.14h309.66c2.608-0.004 4.445 2.557 3.613 5.029zM1193.408 216.259c0 1.626-1.318 2.943-2.943 2.943h-230.59c-2.703 0-4.896-2.193-4.896-4.896v-36.664c0-3.072 2.488-5.561 5.561-5.561h229.926c1.626 0 2.943 1.318 2.943 2.943v41.233zM1189.595 310.689h-134.479c-3.638 0-6.591-2.952-6.591-6.591v-34.12c0-3.497 2.836-6.332 6.332-6.332h134.732c2.106 0 3.815 1.707 3.815 3.815v39.418h0.004c0 2.102-1.707 3.81-3.815 3.81zM1190.693 127.643l-230.783-0.004c-2.725 0-4.93-2.21-4.93-4.93v-37.294c0-2.661 2.159-4.814 4.814-4.814h231.488c1.176 0 2.124 0.952 2.124 2.124v42.208c0 1.498-1.214 2.712-2.712 2.712z" />
<glyph unicode="&#xe90b;" glyph-name="Microsoft" horiz-adv-x="4795" d="M1692.378 370.207l-28.577-80.967h-2.381c-4.763 18.257-13.495 46.040-27.783 79.38l-153.203 384.992h-150.028v-613.605h99.225v378.641c0 23.814 0 50.803-0.794 84.143-0.794 16.67-2.381 29.371-3.175 38.896h2.381c4.763-23.814 10.319-41.278 14.288-52.391l184.161-447.702h69.854l182.574 451.671c3.969 10.319 7.938 30.958 11.907 48.422h2.381c-2.381-45.247-3.969-85.73-4.763-110.338v-388.96h105.575v612.812h-144.471l-157.172-384.992zM2094.040 582.151h103.194v-439.764h-103.194v439.764zM2146.431 767.9c-17.464 0-31.752-6.35-43.659-17.464s-18.257-25.402-18.257-42.865c0-16.67 6.35-30.958 18.257-42.071s26.195-16.67 43.659-16.67c17.464 0 32.546 6.35 43.659 16.67 11.907 11.113 18.257 25.402 18.257 42.071s-6.35 30.958-18.257 42.865c-10.319 11.113-25.402 17.464-43.659 17.464v0zM2563.175 586.12c-19.051 3.969-38.896 6.35-57.947 6.35-46.834 0-89.699-10.319-125.42-30.958s-64.298-49.216-82.555-84.936c-19.051-36.515-28.577-78.586-28.577-127.008 0-42.071 9.526-79.38 27.783-113.513 18.257-33.34 43.659-60.329 77.792-78.585 32.546-18.257 70.648-27.783 113.513-27.783 49.216 0 91.287 10.319 124.626 29.371l0.794 0.794v95.255l-3.969-3.175c-15.082-11.113-32.546-20.639-50.009-26.195-18.257-6.35-34.927-9.526-49.216-9.526-41.278 0-73.823 11.907-96.843 38.102-23.814 25.402-35.721 60.329-35.721 103.988 0 45.247 11.907 80.967 36.515 107.163s57.153 39.69 96.843 39.69c33.34 0 67.473-11.113 98.431-33.34l3.969-3.175v100.812l-0.794 0.794c-13.495 5.557-28.577 11.907-49.216 15.876v0zM2903.715 589.295c-25.402 0-49.216-7.938-69.854-24.608-17.464-14.288-29.371-34.927-39.69-59.535h-0.794v76.998h-103.194v-439.764h103.194v224.644c0 38.102 7.938 69.854 25.402 92.874 17.464 23.814 39.69 35.721 66.679 35.721 9.526 0 19.051-2.381 30.958-3.969 11.113-3.175 19.051-6.35 24.608-10.319l3.969-3.175v103.194l-2.381 0.794c-7.144 4.763-21.433 7.144-38.896 7.144v0zM3184.719 591.677c-72.236 0-130.183-21.433-170.667-63.504-41.278-42.071-61.122-100.019-61.122-173.048 0-68.267 20.639-123.833 60.329-164.316 39.69-39.689 93.668-60.328 161.141-60.328 70.648 0 127.008 21.433 167.491 64.297 41.278 42.865 61.122 100.019 61.122 170.667 0 69.854-19.051 125.42-57.947 165.904-37.309 40.484-92.081 60.329-160.347 60.329v0zM3267.274 253.519c-19.051-24.608-49.216-36.515-86.524-36.515s-67.473 11.907-88.905 38.102c-21.433 24.608-31.752 60.329-31.752 105.575 0 46.834 11.113 82.555 31.752 107.957 21.433 25.402 50.803 38.102 88.112 38.102 36.515 0 65.091-11.907 85.73-36.515s31.752-60.329 31.752-107.163c-1.588-47.628-10.319-84.936-30.164-109.544v0zM3633.216 399.578c-32.546 13.495-53.184 23.814-62.71 32.546-7.938 7.938-11.907 19.051-11.907 33.34 0 11.907 4.763 23.814 16.67 31.752s25.402 11.907 45.247 11.907c17.464 0 35.721-3.175 53.184-7.938s33.34-11.907 46.040-21.433l3.969-3.175v96.843l-2.381 0.794c-11.907 4.763-27.783 9.526-46.834 13.495-19.051 3.175-36.515 4.763-50.803 4.763-49.216 0-89.699-11.907-121.451-38.102-31.752-24.608-46.834-57.947-46.834-96.843 0-20.639 3.175-38.896 10.319-53.978s17.464-29.371 31.752-41.278c14.288-11.113 34.927-23.814 63.504-35.721 23.814-10.319 42.071-18.257 53.184-24.608s18.257-13.495 23.814-19.051c3.969-6.35 6.35-14.288 6.35-24.608 0-29.371-22.226-43.659-67.473-43.659-17.464 0-35.721 3.175-57.153 10.319s-41.278 17.464-57.947 29.371l-3.969 3.175v-100.812l2.381-0.794c15.082-7.144 33.34-11.907 55.566-17.464 22.226-3.969 42.071-7.144 59.535-7.144 53.184 0 96.843 11.907 127.802 38.102 31.752 25.402 48.422 57.947 48.422 100.019 0 29.371-7.938 55.566-25.402 75.411-23.020 19.051-51.597 38.896-92.874 54.772v0zM4023.764 591.677c-72.236 0-130.183-21.433-170.667-63.504s-61.122-100.019-61.122-173.048c0-68.267 20.639-123.833 60.329-164.316 39.69-39.689 93.668-60.328 161.141-60.328 70.648 0 127.008 21.433 167.491 64.297 41.278 42.865 61.122 100.019 61.122 170.667 0 69.854-19.051 125.42-57.947 165.904-37.309 40.484-92.081 60.329-160.347 60.329v0zM4105.526 253.519c-19.051-24.608-49.216-36.515-86.524-36.515-38.102 0-67.473 11.907-88.905 38.102-21.433 24.608-31.752 60.329-31.752 105.575 0 46.834 11.113 82.555 31.752 107.957 21.433 25.402 50.803 38.102 88.112 38.102 35.721 0 65.091-11.907 85.73-36.515s31.752-60.329 31.752-107.163c0-47.628-10.319-84.936-30.164-109.544v0zM4793.749 497.215v84.936h-103.988v130.183l-3.175-0.794-100.812-30.164v-99.225h-155.584v55.566c0 25.402 6.35 45.247 17.464 57.947s27.783 19.051 48.422 19.051c14.288 0 29.371-3.175 46.040-10.319l3.969-2.381v89.699l-2.381 0.794c-14.288 4.763-33.34 7.938-57.947 7.938-30.958 0-57.947-7.144-82.555-19.051-24.608-13.495-42.865-31.752-56.36-56.36-13.495-23.814-20.639-50.803-20.639-81.761v-61.122h-72.236v-84.143h72.236v-355.621h103.988v354.827h155.584v-226.233c0-92.874 43.659-139.708 130.977-139.708 14.288 0 29.371 2.381 43.659 4.763 15.082 3.175 26.195 7.144 32.546 10.319l0.794 0.794v84.936l-3.969-3.175c-6.35-3.969-11.907-7.144-21.433-9.526-7.938-2.381-15.082-3.175-20.639-3.175-20.639 0-34.927 4.763-45.247 16.67-9.526 11.113-14.288 29.371-14.288 56.36v207.975h105.575zM0 960h486.598v-486.598h-486.598v486.598zM537.402 960h486.598v-486.598h-486.598v486.598zM0 422.598h486.598v-486.598h-486.598v486.598zM537.402 422.598h486.598v-486.598h-486.598v486.598z" />
<glyph unicode="&#xe90c;" glyph-name="Samsung" horiz-adv-x="6678" d="M669.571 258.675c8.468-21.277 5.784-48.549 1.652-65.077-7.228-29.337-27.062-59.29-85.735-59.29-54.954 0-88.418 31.816-88.418 79.741v85.323h-236.134v-67.759c0-196.258 154.321-255.549 319.8-255.549 159.074 0 290.053 54.129 310.917 201.013 10.744 76.023 2.893 125.811-0.826 144.202-37.188 184.276-371.035 239.23-396.031 342.321-3.47 15.201-3.75 30.959-0.826 46.278 6.198 28.302 25.41 59.085 80.364 59.085 51.649 0 81.603-31.816 81.603-79.741v-54.542h219.607v61.976c0 191.713-172.089 221.673-296.456 221.673-156.596 0-284.473-51.853-307.816-195.431-6.198-39.254-7.229-74.371 2.066-118.583 38.219-179.733 350.789-231.793 396.24-345.626zM3532.279 260.355c8.474-21.277 5.788-48.549 1.652-65.075-7.232-29.337-27.056-59.29-85.729-59.29-54.955 0-88.426 31.816-88.426 79.741v85.322h-236.132v-67.758c0-196.258 154.32-255.549 319.794-255.549 159.084 0 290.058 54.128 310.921 201.013 10.744 76.023 2.894 125.811-0.82 144.201-37.197 184.276-371.039 239.231-396.032 342.322-3.478 15.201-3.754 30.958-0.832 46.278 6.198 28.302 25.415 59.085 80.363 59.085 51.651 0 81.604-31.816 81.604-79.741v-54.542h219.613v61.976c0 191.713-172.093 221.673-296.464 221.673-156.59 0-284.467-51.853-307.813-195.432-6.198-39.253-7.232-74.37 2.062-118.582 38.221-179.733 350.794-231.793 396.24-345.627zM1202.986 890.216l-163.206-879.864h237.785l120.441 798.469h4.956l117.138-798.469h236.549l-162.181 880.072-391.481-0.206zM2532.39 890.216l-108.465-672.653h-5.162l-108.25 672.653h-358.846l-19.414-879.864h220.214l5.377 791.032h4.956l146.881-791.032h223.327l147.1 790.823h4.749l5.574-790.823h220.023l-19.425 880.072-358.632-0.206zM4268.772 142.156c61.151 0 79.952 42.147 84.291 63.628 1.858 9.504 2.062 22.313 2.062 33.673v650.758h222.709v-630.717c0.040-19.301-0.657-38.597-2.073-57.846-15.492-164.237-145.229-217.54-306.988-217.54-161.967 0-291.704 53.302-307.196 217.54-0.624 8.678-2.276 41.734-2.073 57.846v630.926h222.709v-650.758c-0.206-11.57 0.206-24.379 2.062-33.883 4.136-21.486 23.139-63.628 84.498-63.628zM5344.691 890.216l11.985-690.63h-4.749l-202.464 690.63h-326.402v-870.569h216.298l-11.985 714.593h4.749l217.129-714.593h313.394v870.569h-217.95zM6103.902 151.246c63.635 0 85.943 40.285 89.875 64.041 1.858 9.708 2.062 22.103 2.062 33.056v128.086h-90.286v128.086h311.753v-235.926c0-16.528-0.421-28.51-3.097-57.846-14.469-160.315-153.499-217.54-309.472-217.54s-294.801 57.225-309.472 217.54c-2.472 29.338-3.097 41.32-3.097 57.846v370.209c0 15.702 2.073 43.386 3.725 57.846 19.616 164.651 152.875 217.54 308.848 217.54s292.738-52.475 308.848-217.332c2.894-28.097 2.073-57.846 2.073-57.846v-29.542h-221.878v49.376c0 0 0 20.66-2.686 33.469-4.136 19.42-20.656 64.041-88.005 64.041-64.045 0-82.846-42.351-87.595-64.041-2.686-11.57-3.714-27.271-3.714-41.525v-402.229c0-11.156 0.41-23.552 2.062-33.469 4.136-23.552 26.443-63.836 90.067-63.836z" />
<glyph unicode="&#xe934;" d="M947.31 783.448h-870.62c-42.356 0-76.69-34.334-76.69-76.69v-517.518c0-42.354 34.334-76.69 76.69-76.69h870.62c42.354 0 76.69 34.334 76.69 76.69v517.518c0 42.356-34.334 76.69-76.69 76.69z" />
<glyph unicode="&#xe935;" d="M1022.938 719.436c-6.044 36.318-37.594 64.014-75.628 64.014h-19.954l-327.080-214.294v214.292h-176.552v-214.294l-327.080 214.294h-19.954c-38.034 0-69.584-27.694-75.628-64.014l279.556-183.16h-280.618v-176.552h280.618l-279.556-183.156c6.044-36.318 37.594-64.014 75.628-64.014h19.954l327.080 214.294v-214.294h176.552v214.294l327.080-214.294h19.954c38.034 0 69.584 27.694 75.628 64.014l-279.556 183.16h280.618v176.552h-280.618l279.556 183.158z" />
<glyph unicode="&#xe936;" d="M564.966 783.448h-105.932v-282.482h-459.034v-105.932h459.034v-282.482h105.932v282.482h459.034v105.932h-459.034v282.482z" />
<glyph unicode="&#xe937;" d="M49.586 117.496l373.166 242.228h-64.856l-339.448-220.344c8.306-9.694 18.98-17.29 31.138-21.884z" />
<glyph unicode="&#xe938;" d="M692.776 359.724h-64.856l361.432-234.61c10.114 6.642 18.554 15.614 24.574 26.15l-321.15 208.46z" />
<glyph unicode="&#xe939;" d="M8.098 741.050l315.46-204.774h64.856l-357.464 232.040c-9.598-7.144-17.452-16.484-22.852-27.266z" />
<glyph unicode="&#xe93a;" d="M665.132 536.276l340.070 220.75c-8.398 9.662-19.156 17.214-31.398 21.72l-373.528-242.47h64.856z" />
<glyph unicode="&#xea90;" glyph-name="facebook" d="M608 768h160v192h-160c-123.514 0-224-100.486-224-224v-96h-128v-192h128v-512h192v512h160l32 192h-192v96c0 17.346 14.654 32 32 32z" />
<glyph unicode="&#xea96;" glyph-name="twitter" d="M1024 733.6c-37.6-16.8-78.2-28-120.6-33 43.4 26 76.6 67.2 92.4 116.2-40.6-24-85.6-41.6-133.4-51-38.4 40.8-93 66.2-153.4 66.2-116 0-210-94-210-210 0-16.4 1.8-32.4 5.4-47.8-174.6 8.8-329.4 92.4-433 219.6-18-31-28.4-67.2-28.4-105.6 0-72.8 37-137.2 93.4-174.8-34.4 1-66.8 10.6-95.2 26.2 0-0.8 0-1.8 0-2.6 0-101.8 72.4-186.8 168.6-206-17.6-4.8-36.2-7.4-55.4-7.4-13.6 0-26.6 1.4-39.6 3.8 26.8-83.4 104.4-144.2 196.2-146-72-56.4-162.4-90-261-90-17 0-33.6 1-50.2 3 93.2-59.8 203.6-94.4 322.2-94.4 386.4 0 597.8 320.2 597.8 597.8 0 9.2-0.2 18.2-0.6 27.2 41 29.4 76.6 66.4 104.8 108.6z" />
<glyph unicode="&#xeaa7;" glyph-name="dribbble" d="M512-64c-282.4 0-512 229.6-512 512s229.6 512 512 512c282.4 0 512-229.6 512-512s-229.6-512-512-512v0zM943.8 378c-15 4.8-135.4 40.6-272.4 18.6 57.2-157.2 80.4-285.2 85-311.8 98 66.4 168 171.4 187.4 293.2v0zM682.8 44.8c-6.6 38.4-31.8 172-93.2 331.6-1-0.4-2-0.6-2.8-1-246.8-86-335.4-257-343.2-273 74.2-57.8 167.4-92.4 268.4-92.4 60.6 0 118.4 12.4 170.8 34.8v0zM187 155c10 17 130 215.6 355.4 288.6 5.6 1.8 11.4 3.6 17.2 5.2-11 24.8-23 49.8-35.4 74.2-218.2-65.4-430.2-62.6-449.4-62.4-0.2-4.4-0.2-8.8-0.2-13.4 0-112.2 42.6-214.8 112.4-292.2v0zM84 537c19.6-0.2 199.8-1 404.4 53.2-72.4 128.8-150.6 237.2-162.2 253-122.4-57.8-214-170.6-242.2-306.2v0zM409.6 872.6c12-16.2 91.6-124.4 163.2-256 155.6 58.2 221.4 146.8 229.2 158-77.2 68.6-178.8 110.2-290 110.2-35.2-0.2-69.6-4.4-102.4-12.2v0zM850.6 723.8c-9.2-12.4-82.6-106.4-244.2-172.4 10.2-20.8 20-42 29-63.4 3.2-7.6 6.4-15 9.4-22.6 145.6 18.2 290.2-11 304.6-14-1 103.2-38 198-98.8 272.4v0z" />
<glyph unicode="&#xeaa8;" glyph-name="behance" d="M297 754.8c30.2 0 57.4-2.6 82.2-8 24.8-5.2 45.8-14 63.6-26 17.6-12 31.2-28 41.2-48 9.6-19.8 14.4-44.6 14.4-74 0-31.8-7.2-58.2-21.6-79.4-14.6-21.2-35.8-38.4-64.2-52 38.8-11.2 67.4-30.8 86.6-58.6 19.2-28 28.4-61.6 28.4-101.2 0-32-6.2-59.4-18.4-82.6-12.4-23.4-29.2-42.4-49.8-57-20.8-14.8-44.8-25.6-71.6-32.6-26.6-7-54-10.6-82.4-10.6h-305.4v630h297zM279 500.4c24.6 0 45 5.8 61 17.6 16 11.6 23.6 30.8 23.6 57.2 0 14.6-2.6 26.8-7.8 36.2-5.4 9.4-12.4 16.8-21.4 22-8.8 5.4-18.8 9-30.6 11-11.4 2.2-23.4 3.2-35.6 3.2h-129.6v-147.2h140.4zM286.6 232.2c13.6 0 26.6 1.2 38.8 4 12.4 2.8 23.4 7 32.6 13.4 9.2 6.2 17 14.4 22.6 25.2 5.6 10.6 8.2 24.2 8.2 40.8 0 32.4-9.2 55.6-27.4 69.6-18.2 13.8-42.4 20.6-72.4 20.6h-150.4v-173.4h148zM725.2 234.4c18.8-18.4 45.8-27.6 81-27.6 25.2 0 47.2 6.4 65.4 19.2s29.2 26.4 33.4 40.4h110.4c-17.8-55-44.6-94-81.4-117.6-36.2-23.6-80.6-35.6-132-35.6-36 0-68.2 5.8-97.2 17.2-29 11.6-53.2 27.8-73.6 49-19.8 21.2-35.4 46.4-46.4 76-10.8 29.4-16.4 62-16.4 97.2 0 34.2 5.6 66 16.8 95.4 11.4 29.6 27 55 47.8 76.4s45.2 38.4 74 50.8c28.6 12.4 60.2 18.6 95.2 18.6 38.6 0 72.4-7.4 101.4-22.6 28.8-15 52.6-35.2 71.2-60.4s31.8-54.2 40-86.6c8.2-32.4 11-66.2 8.8-101.6h-329.4c0-35.8 12-70 31-88.2zM869 474c-14.8 16.4-40.2 25.4-70.8 25.4-20 0-36.6-3.4-49.8-10.2-13-6.8-23.6-15.2-31.8-25.2-8-10-13.6-20.8-16.8-32.2-3.2-11-5.2-21.2-5.8-30h204c-3 32-14 55.6-29 72.2zM668.4 704h255.4v-62.2h-255.4v62.2z" />
</font>
</defs>
</svg>
