<svg height="512" viewBox="0 0 64 64" width="512" xmlns="http://www.w3.org/2000/svg"><g id="protect-safe-coronavirus-covid19-protection"><circle cx="32" cy="32" fill="#9bc9ff" r="12"/><path d="m51.04 10.13a29 29 0 0 0 -40.91 40.91 27 27 0 0 0 2.83 2.83 29 29 0 0 0 40.91-40.91 27 27 0 0 0 -2.83-2.83zm-44.04 21.87a24.991 24.991 0 0 1 41.2-19.03l-9.25 9.25-16.73 16.73-9.25 9.25a24.9 24.9 0 0 1 -5.97-16.2zm25 25a24.9 24.9 0 0 1 -16.2-5.97l9.25-9.25 25.98-25.98a24.991 24.991 0 0 1 -19.03 41.2z" fill="#9bc9ff"/><g fill="#1e81ce"><path d="m54.625 12.3a28.007 28.007 0 0 0 -2.925-2.924 30 30 0 0 0 -42.328 42.317 28.064 28.064 0 0 0 2.928 2.931 30 30 0 0 0 42.325-42.324zm-22.625 47.7a27.956 27.956 0 0 1 -18.388-6.887 26.432 26.432 0 0 1 -2.728-2.73 28 28 0 0 1 39.5-39.5 26.355 26.355 0 0 1 2.724 2.726 28 28 0 0 1 -21.108 46.391z"/><path d="m49.2 12.93a1 1 0 0 0 -.35-.722 25.991 25.991 0 0 0 -36.641 36.64 1 1 0 0 0 .722.351h.04a1 1 0 0 0 .707-.293l35.23-35.23a1 1 0 0 0 .292-.746zm-28.031 17.2 2.846.763a1 1 0 0 0 .517-1.932l-2.852-.761a10.9 10.9 0 0 1 4.814-5.727 11.152 11.152 0 0 1 1.707-.79l1.022 3.817a1 1 0 0 0 .964.742.974.974 0 0 0 .26-.035 1 1 0 0 0 .707-1.225l-1.022-3.814a10.89 10.89 0 0 1 7.224 1.232l-14.956 14.959a10.921 10.921 0 0 1 -1.232-7.226zm15.231-14.55a1 1 0 0 1 .26-1.967 1.053 1.053 0 0 1 .259.034 1 1 0 0 1 -.519 1.933zm2.416 5.36a12.787 12.787 0 0 0 -2.5-1.2l.576-2.15a3 3 0 1 0 -1.931-.52l-.578 2.157a12.917 12.917 0 0 0 -4.773 0l-.577-2.154a3 3 0 0 0 1.2-3.237 3 3 0 1 0 -3.134 3.758l.575 2.146a12.73 12.73 0 0 0 -4.138 2.388l-1.57-1.57a2.967 2.967 0 0 0 -.578-3.407 3.012 3.012 0 1 0 -.838 4.82l1.575 1.575a12.873 12.873 0 0 0 -2.383 4.137l-2.154-.577a2.962 2.962 0 0 0 -2.2-2.662 3.009 3.009 0 0 0 -3.674 2.121 3 3 0 0 0 2.121 3.675 3.027 3.027 0 0 0 .782.1 2.964 2.964 0 0 0 2.458-1.3l2.159.578a12.924 12.924 0 0 0 -.016 4.774l-2.143.575a2.994 2.994 0 0 0 -5.361 2.472 3 3 0 0 0 5.5.723 2.967 2.967 0 0 0 .382-1.264l2.16-.578a12.994 12.994 0 0 0 1.194 2.49l-7.9 7.9a23.99 23.99 0 0 1 33.659-33.664zm-11.216-5.36a1 1 0 0 1 -1.126-1.467 1 1 0 0 1 .607-.466 1.059 1.059 0 0 1 .259-.034 1 1 0 0 1 .26 1.967zm-7.329 3.692a1 1 0 0 1 -1.707.708 1 1 0 1 1 1.414-1.415.989.989 0 0 1 .294.707zm-4.692 8.328a1 1 0 0 1 -1.932-.518 1 1 0 0 1 1.225-.708 1 1 0 0 1 .707 1.225zm-1.225 8.093a1.012 1.012 0 0 1 .261-.035 1.006 1.006 0 1 1 -.261.035z"/><path d="m51.792 15.152a1 1 0 0 0 -1.469-.059l-35.23 35.23a1 1 0 0 0 .058 1.468 25.991 25.991 0 0 0 36.641-36.639zm-9.168 19.7a10.93 10.93 0 0 1 -2.173 4.184l-2.794-2.793a1 1 0 0 0 -1.414 1.414l2.793 2.793a11.145 11.145 0 0 1 -1.53 1.077 10.966 10.966 0 0 1 -10.863.074l14.957-14.961a10.941 10.941 0 0 1 1.024 8.212zm-6.224 13.568a1 1 0 0 1 1.126 1.467 1 1 0 1 1 -1.126-1.467zm-9.057-.034a1 1 0 1 1 -.26 1.967 1 1 0 0 1 .26-1.967zm4.657 7.614a24.017 24.017 0 0 1 -14.71-5.047l7.894-7.894a12.742 12.742 0 0 0 2.5 1.2l-.576 2.152a3 3 0 1 0 1.931.518l.576-2.15a13.059 13.059 0 0 0 2.414.23 12.783 12.783 0 0 0 2.358-.245l.58 2.165a3 3 0 0 0 -1.2 3.237 3.006 3.006 0 0 0 2.9 2.223 2.993 2.993 0 0 0 .237-5.978l-.581-2.167a12.226 12.226 0 0 0 4.143-2.37l1.57 1.57a2.967 2.967 0 0 0 .578 3.407 3 3 0 1 0 .838-4.82l-1.575-1.575a12.873 12.873 0 0 0 2.383-4.137l2.154.577a2.962 2.962 0 0 0 2.2 2.662 3 3 0 0 0 3.674-2.121 2.992 2.992 0 0 0 -5.361-2.472l-2.16-.579a12.909 12.909 0 0 0 .018-4.771l2.143-.577a2.96 2.96 0 0 0 2.457 1.3 3.033 3.033 0 0 0 .782-.1 3.012 3.012 0 1 0 -3.757-3.133l-2.159.581a13 13 0 0 0 -1.2-2.494l7.9-7.9a23.99 23.99 0 0 1 -18.951 38.708zm11.728-11.272a1 1 0 0 1 1.707-.708 1 1 0 1 1 -1.414 1.415.989.989 0 0 1 -.293-.707zm4.693-8.328a1 1 0 1 1 .1.76.994.994 0 0 1 -.1-.76zm0-8.8a1 1 0 0 1 .965-1.259 1 1 0 0 1 .967.742 1 1 0 1 1 -1.932.517z"/><path d="m27.4 24.858a1 1 0 0 0 -1.366-.365l-1.224.707a1 1 0 1 0 1 1.732l1.224-.708a1 1 0 0 0 .366-1.366z"/><path d="m28.206 26.842a1 1 0 0 0 -1.225.707l-.258.966a1 1 0 0 0 .707 1.225 1.013 1.013 0 0 0 .259.034 1 1 0 0 0 .965-.741l.259-.966a1 1 0 0 0 -.707-1.225z"/><path d="m38.5 34.777.966.259a.974.974 0 0 0 .26.035 1 1 0 0 0 .257-1.967l-.965-.258a1 1 0 1 0 -.518 1.931z"/><path d="m31 42h1a1 1 0 0 0 0-2h-1a1 1 0 0 0 0 2z"/><path d="m33.293 39.707a1 1 0 0 0 1.414-1.414l-1-1a1 1 0 0 0 -1.414 1.414z"/><path d="m24 32h-1a1 1 0 0 0 0 2h1a1 1 0 0 0 0-2z"/><path d="m34.707 22.293a1 1 0 0 0 -1.414 0l-1 1a1 1 0 1 0 1.414 1.414l1-1a1 1 0 0 0 0-1.414z"/><path d="m41 32a1 1 0 0 0 1-1v-1a1 1 0 0 0 -2 0v1a1 1 0 0 0 1 1z"/></g></g></svg>